<svg width="31" height="31" viewBox="0 0 31 31" fill="none" xmlns="http://www.w3.org/2000/svg">
<path d="M13.211 19C12.4024 20.1774 11.0682 20.9496 9.53194 20.9496C9.07913 20.9496 8.64199 20.8825 8.22992 20.7577C8.13613 20.7293 8.03918 20.798 8.03918 20.896C8.03918 21.5057 7.5449 22 6.93518 22C6.32546 22 5.83118 21.5057 5.83118 20.896L5.83118 20C5.83117 19.4477 6.27889 19 6.83118 19H13.211Z" fill="#212121"/>
<path d="M16.7505 19C17.5591 20.1774 18.8933 20.9496 20.4295 20.9496C20.8823 20.9496 21.3195 20.8825 21.7315 20.7577C21.8253 20.7293 21.9223 20.798 21.9223 20.896C21.9223 21.5057 22.4166 22 23.0263 22C23.636 22 24.1303 21.5057 24.1303 20.896L24.1303 20C24.1303 19.4477 23.6826 19 23.1303 19H16.7505Z" fill="#212121"/>
<path d="M9.01564 7.40386L9.01884 7.38763C9.06448 7.11553 9.32186 6.93223 9.59408 6.9776C9.86646 7.02299 10.0505 7.28061 10.0051 7.55299L9.51188 7.47079C10.0051 7.55299 10.0049 7.55423 10.0049 7.55423L10.0046 7.55574L10.0039 7.5596L10.0019 7.5706C10.0003 7.57936 9.99809 7.59096 9.99516 7.60521C9.9893 7.63369 9.98067 7.67284 9.96859 7.72115C9.94447 7.81763 9.90645 7.95137 9.84916 8.11002C9.73501 8.42611 9.5417 8.84852 9.22342 9.27289C8.57355 10.1394 7.42874 10.975 5.50629 10.975C5.23014 10.975 5.00629 10.7511 5.00629 10.475C5.00629 10.1988 5.23014 9.97499 5.50629 9.97499C7.08873 9.97499 7.94671 9.30849 8.42342 8.67289C8.66842 8.34622 8.81934 8.01757 8.9086 7.77038C8.95302 7.64738 8.98149 7.54642 8.99845 7.47861C9.00691 7.44477 9.01245 7.41938 9.01564 7.40386Z" fill="#212121"/>
<path d="M21.0235 7.40386L21.0204 7.38823L21.0201 7.38693C20.974 7.11546 20.7169 6.93229 20.445 6.9776C20.1726 7.02299 19.9886 7.28061 20.034 7.55299L20.5272 7.47079C20.034 7.55299 20.0342 7.55423 20.0342 7.55423L20.0345 7.55574L20.0352 7.5596L20.0372 7.5706C20.0388 7.57936 20.041 7.59096 20.0439 7.60521C20.0498 7.63369 20.0584 7.67284 20.0705 7.72115C20.0946 7.81763 20.1327 7.95137 20.19 8.11002C20.3041 8.42611 20.4974 8.84852 20.8157 9.27289C21.4656 10.1394 22.6104 10.975 24.5328 10.975C24.809 10.975 25.0328 10.7511 25.0328 10.475C25.0328 10.1988 24.809 9.97499 24.5328 9.97499C22.9504 9.97499 22.0924 9.30849 21.6157 8.67289C21.3707 8.34622 21.2198 8.01757 21.1305 7.77038C21.0861 7.64738 21.0576 7.54642 21.0407 7.47861C21.0322 7.44477 21.0267 7.41938 21.0235 7.40386Z" fill="#212121"/>
<path d="M12.5171 22.4351C12.2092 22.158 11.735 22.183 11.4579 22.4908C11.1808 22.7987 11.2058 23.2729 11.5137 23.55C12.4397 24.3835 13.7649 24.7565 15.0196 24.7565C16.2743 24.7565 17.5994 24.3835 18.5255 23.55C18.8334 23.2729 18.8583 22.7987 18.5812 22.4908C18.3041 22.183 17.8299 22.158 17.522 22.4351C16.946 22.9535 16.018 23.2565 15.0196 23.2565C14.0211 23.2565 13.0932 22.9535 12.5171 22.4351Z" fill="#212121"/>
<path d="M13.8168 16.2846C13.8168 16.9036 13.6648 17.4872 13.3961 18H6.83512C6.56641 17.4872 6.41442 16.9036 6.41442 16.2846C6.41442 14.2405 8.07149 12.5834 10.1156 12.5834C12.1597 12.5834 13.8168 14.2405 13.8168 16.2846ZM12.5289 16.3392C13.075 15.9614 13.1429 15.1132 12.6804 14.4447C12.218 13.7762 11.4003 13.5406 10.8541 13.9184C10.308 14.2963 10.2401 15.1445 10.7026 15.813C11.1651 16.4814 11.9827 16.7171 12.5289 16.3392Z" fill="#212121"/>
<path d="M16.5653 18H23.1263C23.395 17.4872 23.547 16.9036 23.547 16.2846C23.547 14.2405 21.8899 12.5834 19.8458 12.5834C17.8017 12.5834 16.1446 14.2405 16.1446 16.2846C16.1446 16.9036 16.2966 17.4872 16.5653 18ZM22.0111 16.3392C21.4649 16.7171 20.6473 16.4814 20.1848 15.813C19.7223 15.1445 19.7902 14.2963 20.3363 13.9184C20.8825 13.5406 21.7001 13.7762 22.1626 14.4447C22.6251 15.1132 22.5572 15.9614 22.0111 16.3392Z" fill="#212121"/>
<path d="M3.76831 5.39138C6.32115 2.61927 10.1082 0.962891 15.0184 0.962891C19.9287 0.962891 23.7157 2.61927 26.2686 5.39138C28.809 8.15001 30.0369 11.9148 30.0369 15.9813C30.0369 20.0479 28.809 23.8127 26.2686 26.5713C23.7157 29.3434 19.9287 30.9998 15.0184 30.9998C10.1082 30.9998 6.32115 29.3434 3.76831 26.5713C1.22789 23.8127 0 20.0479 0 15.9813C0 11.9148 1.22789 8.15001 3.76831 5.39138ZM5.23951 6.74621C3.10758 9.06127 2 12.3057 2 15.9813C2 19.657 3.10758 22.9014 5.23951 25.2165C7.35903 27.518 10.5812 28.9998 15.0184 28.9998C19.4557 28.9998 22.6779 27.518 24.7974 25.2165C26.9293 22.9014 28.0369 19.657 28.0369 15.9813C28.0369 12.3057 26.9293 9.06127 24.7974 6.74621C22.6779 4.44464 19.4557 2.96289 15.0184 2.96289C10.5812 2.96289 7.35903 4.44464 5.23951 6.74621Z" fill="#212121"/>
</svg>
